<svg width="24" height="24" viewBox="0 0 24 24" fill="none" xmlns="http://www.w3.org/2000/svg">
<path d="M18 4.4804C16.4087 2.8891 14.2504 1.99512 12 1.99512C9.74957 1.99512 7.5913 2.8891 6.00001 4.4804C4.40871 6.0717 3.51472 8.22996 3.51472 10.4804C3.51472 12.7308 4.40871 14.8891 6.00001 16.4804L11.27 21.7604C11.363 21.8541 11.4736 21.9285 11.5954 21.9793C11.7173 22.0301 11.848 22.0562 11.98 22.0562C12.112 22.0562 12.2427 22.0301 12.3646 21.9793C12.4864 21.9285 12.597 21.8541 12.69 21.7604L18 16.4304C19.5847 14.8457 20.4749 12.6965 20.4749 10.4554C20.4749 8.21434 19.5847 6.06508 18 4.4804V4.4804ZM16.57 15.0004L12 19.5904L7.43001 15.0004C6.52715 14.0967 5.91248 12.9456 5.6637 11.6927C5.41492 10.4397 5.54319 9.14115 6.03231 7.96108C6.52143 6.78101 7.34942 5.77245 8.41164 5.06288C9.47385 4.3533 10.7226 3.97458 12 3.97458C13.2774 3.97458 14.5262 4.3533 15.5884 5.06288C16.6506 5.77245 17.4786 6.78101 17.9677 7.96108C18.4568 9.14115 18.5851 10.4397 18.3363 11.6927C18.0875 12.9456 17.4729 14.0967 16.57 15.0004V15.0004ZM9.00001 7.4104C8.19272 8.22017 7.7394 9.31697 7.7394 10.4604C7.7394 11.6038 8.19272 12.7006 9.00001 13.5104C9.59977 14.1112 10.3636 14.5215 11.1957 14.6898C12.0277 14.8581 12.891 14.777 13.6771 14.4566C14.4632 14.1361 15.1372 13.5907 15.6145 12.8886C16.0918 12.1866 16.3511 11.3593 16.36 10.5104C16.3645 9.9436 16.2553 9.38166 16.0389 8.85779C15.8225 8.33392 15.5032 7.85875 15.1 7.4604C14.7037 7.05498 14.2311 6.73194 13.7094 6.50986C13.1878 6.28779 12.6273 6.17107 12.0604 6.16643C11.4935 6.16178 10.9312 6.2693 10.406 6.48279C9.88075 6.69628 9.40293 7.01153 9.00001 7.4104V7.4104ZM13.69 12.0904C13.311 12.4751 12.8102 12.7163 12.2731 12.7727C11.736 12.829 11.1961 12.697 10.7455 12.3993C10.295 12.1016 9.9618 11.6566 9.80301 11.1405C9.64422 10.6243 9.66966 10.069 9.87496 9.56955C10.0803 9.07007 10.4527 8.65741 10.9286 8.40213C11.4045 8.14686 11.9543 8.06481 12.4839 8.17002C13.0136 8.27522 13.4903 8.56116 13.8325 8.97893C14.1747 9.3967 14.3612 9.92037 14.36 10.4604C14.3455 11.0777 14.0865 11.6639 13.64 12.0904H13.69Z" fill="#FA9600"/>
</svg>
