<svg width="24" height="24" viewBox="0 0 24 24" fill="none" xmlns="http://www.w3.org/2000/svg">
<path fill-rule="evenodd" clip-rule="evenodd" d="M12 3.625C11.3701 3.625 10.766 3.87522 10.3206 4.32062C9.87522 4.76602 9.625 5.37011 9.625 6V8.375H14.375V6C14.375 5.37011 14.1248 4.76602 13.6794 4.32062C13.234 3.87522 12.6299 3.625 12 3.625ZM7.625 6V8.375H4.5C3.5335 8.375 2.75 9.1585 2.75 10.125V20.625C2.75 21.5915 3.5335 22.375 4.5 22.375H19.5C20.4665 22.375 21.25 21.5915 21.25 20.625V10.125C21.25 9.1585 20.4665 8.375 19.5 8.375H16.375V6C16.375 4.83968 15.9141 3.72688 15.0936 2.90641C14.2731 2.08594 13.1603 1.625 12 1.625C10.8397 1.625 9.72688 2.08594 8.90641 2.90641C8.08594 3.72688 7.625 4.83968 7.625 6ZM4.75 10.375H8.625H15.375H19.25V20.375H4.75V10.375ZM13.125 15.375C13.125 15.9963 12.6213 16.5 12 16.5C11.3787 16.5 10.875 15.9963 10.875 15.375C10.875 14.7537 11.3787 14.25 12 14.25C12.6213 14.25 13.125 14.7537 13.125 15.375Z" fill="#FA9600"/>
</svg>
