<svg width="31" height="29" viewBox="0 0 31 29" fill="none" xmlns="http://www.w3.org/2000/svg">
<path d="M23.5997 28.6672C23.3662 28.6681 23.1358 28.613 22.9279 28.5065L15.4803 24.6075L8.03265 28.5065C7.79081 28.6337 7.51814 28.6905 7.24565 28.6704C6.97315 28.6503 6.71175 28.5542 6.49117 28.3929C6.27059 28.2317 6.09968 28.0118 5.99785 27.7582C5.89603 27.5047 5.86739 27.2276 5.91518 26.9586L7.3755 18.737L1.35897 12.8957C1.17126 12.7084 1.0381 12.4735 0.973777 12.2162C0.909459 11.9589 0.916412 11.689 0.993889 11.4354C1.07853 11.1758 1.23422 10.9452 1.4433 10.7697C1.65238 10.5942 1.90648 10.4808 2.17675 10.4424L10.5006 9.23028L14.166 1.73882C14.2856 1.49192 14.4723 1.2837 14.7047 1.13801C14.9372 0.992312 15.206 0.915039 15.4803 0.915039C15.7546 0.915039 16.0234 0.992312 16.2559 1.13801C16.4883 1.2837 16.675 1.49192 16.7946 1.73882L20.5038 9.21568L28.8277 10.4277C29.0979 10.4662 29.352 10.5796 29.5611 10.7551C29.7702 10.9306 29.9259 11.1612 30.0105 11.4208C30.088 11.6744 30.0949 11.9443 30.0306 12.2016C29.9663 12.4589 29.8331 12.6938 29.6454 12.8811L23.6289 18.7224L25.0892 26.944C25.1414 27.2178 25.1141 27.5008 25.0106 27.7595C24.907 28.0183 24.7317 28.242 24.5051 28.4043C24.2407 28.5896 23.9223 28.6821 23.5997 28.6672Z" fill="#FA9600"/>
</svg>
